HIERARCHY
ROOT Hips
{
 OFFSET 0.000000 0.000000 0.000000
 CHANNELS 6 Xposition Yposition Zposition Yrotation Xrotation Zrotation
 JOINT Chest
 {
  OFFSET 0.000000 9.588913 -0.003946
  CHANNELS 3 Yrotation Xrotation Zrotation
  JOINT Chest2
  {
   OFFSET 0.000000 9.541882 0.008053
   CHANNELS 3 Yrotation Xrotation Zrotation
   JOINT Chest3
   {
    OFFSET 0.000000 9.501360 0.000000
    CHANNELS 3 Yrotation Xrotation Zrotation
    JOINT Chest4
    {
     OFFSET 0.000000 9.491660 0.000000
     CHANNELS 3 Yrotation Xrotation Zrotation
     JOINT Neck
     {
      OFFSET 0.000000 14.331917 0.000000
      CHANNELS 3 Yrotation Xrotation Zrotation
      JOINT Head
      {
       OFFSET 0.000000 8.884799 0.017034
       CHANNELS 3 Yrotation Xrotation Zrotation
       End Site
       {
        OFFSET 0.000000 16.896195 0.008993
       }
      }
     }
     JOINT RightCollar
     {
      OFFSET -2.923010 9.499495 0.000000
      CHANNELS 3 Yrotation Xrotation Zrotation
      JOINT RightShoulder
      {
       OFFSET -13.795216 0.000000 0.000000
       CHANNELS 3 Yrotation Xrotation Zrotation
       JOINT RightElbow
       {
        OFFSET -30.272209 0.000000 0.000000
        CHANNELS 3 Yrotation Xrotation Zrotation
        JOINT RightWrist
        {
         OFFSET -24.478199 0.000000 0.000000
         CHANNELS 3 Yrotation Xrotation Zrotation
         End Site
         {
          OFFSET -18.090752 0.000000 0.000000
         }
        }
       }
      }
     }
     JOINT LeftCollar
     {
      OFFSET 2.923010 9.499495 0.000000
      CHANNELS 3 Yrotation Xrotation Zrotation
      JOINT LeftShoulder
      {
       OFFSET 13.795216 0.000000 0.000000
       CHANNELS 3 Yrotation Xrotation Zrotation
       JOINT LeftElbow
       {
        OFFSET 30.272209 0.000000 0.000000
        CHANNELS 3 Yrotation Xrotation Zrotation
        JOINT LeftWrist
        {
         OFFSET 24.478199 0.000000 0.000000
         CHANNELS 3 Yrotation Xrotation Zrotation
         End Site
         {
          OFFSET 18.090752 0.000000 0.000000
         }
        }
       }
      }
     }
    }
   }
  }
 }
 JOINT RightHip
 {
  OFFSET -7.826875 0.019532 0.001973
  CHANNELS 3 Yrotation Xrotation Zrotation
  JOINT RightKnee
  {
   OFFSET 0.000000 -40.546152 -0.001885
   CHANNELS 3 Yrotation Xrotation Zrotation
   JOINT RightAnkle
   {
    OFFSET 0.000000 -39.417092 -0.003189
    CHANNELS 3 Yrotation Xrotation Zrotation
    JOINT RightToe
    {
     OFFSET 0.000000 -7.579396 17.243563
     CHANNELS 3 Yrotation Xrotation Zrotation
     End Site
     {
      OFFSET 0.000000 -1.500329 6.694466
     }
    }
   }
  }
 }
 JOINT LeftHip
 {
  OFFSET 7.826875 0.019532 0.001973
  CHANNELS 3 Yrotation Xrotation Zrotation
  JOINT LeftKnee
  {
   OFFSET 0.000000 -40.546152 -0.001885
   CHANNELS 3 Yrotation Xrotation Zrotation
   JOINT LeftAnkle
   {
    OFFSET 0.000000 -39.417092 -0.003189
    CHANNELS 3 Yrotation Xrotation Zrotation
    JOINT LeftToe
    {
     OFFSET 0.000000 -7.579396 17.243563
     CHANNELS 3 Yrotation Xrotation Zrotation
     End Site
     {
      OFFSET 0.000000 -1.500329 6.694466
     }
    }
   }
  }
 }
}
MOTION
Frames: 11
Frame Time: 0.008333
29.665683 83.274391 27.059814 -61.509860 -4.594172 0.410958 3.413102 16.358844 2.114087 1.831761 9.600876 1.250749 2.331260 11.994248 1.617947 1.831726 9.600873 1.250745 -4.079651 8.600594 -2.956432 -6.578442 -19.847552 -3.829340 2.948425 -0.417980 -7.312045 -8.300875 -20.037928 78.016722 21.482988 -29.107545 11.537788 5.838667 -8.015276 -0.420859 -13.267898 -0.486350 1.699258 6.354148 -29.070771 -87.856512 -13.852278 -14.435305 -13.956370 -6.862850 -6.434445 2.422110 -8.637123 -9.006222 -20.240496 -1.433207 23.201253 -5.925394 -6.016718 -3.242601 16.581432 0.068408 -1.910171 0.493911 5.379965 -19.446971 6.535565 -2.334333 38.507171 5.984398 -1.924514 -13.951982 -11.964076 0.110250 -0.182988 0.386846
29.640846 83.451759 27.324287 -61.799137 -4.606519 0.326784 3.463076 16.144001 2.057921 1.839097 9.478537 1.243102 2.339608 11.841346 1.607754 1.839065 9.478536 1.243098 -4.031282 8.718161 -2.917943 -6.500583 -19.628722 -3.780533 2.742161 -0.137437 -7.178592 -8.850655 -19.408333 78.389180 21.036205 -28.954398 11.363191 5.964634 -8.031050 -0.486086 -13.094575 -0.489245 1.689627 6.442161 -28.008995 -87.833301 -13.309665 -14.571248 -13.589799 -6.975210 -6.396478 2.577217 -8.090041 -8.515735 -20.136252 -1.585779 22.517769 -5.936020 -6.380631 -2.498345 16.532023 0.017275 -1.935536 0.489634 5.667240 -18.920082 6.615553 -2.341279 37.833405 5.765199 -1.957895 -13.885726 -11.834604 0.137367 -0.043962 0.408657
29.607132 83.632654 27.571098 -62.049054 -4.606997 0.237310 3.502662 15.926628 2.007511 1.841202 9.352959 1.239824 2.341499 11.684392 1.602884 1.841174 9.352959 1.239820 -3.983698 8.841622 -2.878254 -6.424808 -19.398915 -3.729095 2.535071 0.148808 -7.061343 -9.398040 -18.787458 78.774147 20.623185 -28.803751 11.179824 6.070751 -8.045228 -0.557500 -12.921106 -0.498398 1.684420 6.508634 -26.957691 -87.820700 -12.732184 -14.791934 -13.229431 -7.121961 -6.400620 2.754812 -7.570877 -8.070294 -19.979207 -1.745492 21.915752 -5.968152 -6.835365 -1.824495 16.447746 -0.035945 -1.902374 0.492630 5.961629 -18.405108 6.693160 -2.402193 37.132248 5.530909 -1.967934 -13.804002 -11.696839 0.149670 0.101389 0.415748
29.561674 83.817061 27.800454 -62.257048 -4.593470 0.129593 3.533872 15.699910 1.977169 1.839604 9.224496 1.240737 2.338845 11.523823 1.603157 1.839581 9.224497 1.240733 -3.940264 8.970094 -2.835867 -6.358419 -19.159705 -3.670478 2.326494 0.443929 -6.959602 -9.953214 -18.177274 79.171605 20.239378 -28.643647 10.995046 6.153223 -8.062964 -0.630592 -12.747022 -0.510569 1.684557 6.553004 -25.924178 -87.818109 -12.120806 -15.087194 -12.882651 -7.300356 -6.456746 2.951727 -7.104740 -7.673713 -19.762206 -1.910205 21.402495 -6.009418 -7.334012 -1.260826 16.267591 -0.062620 -1.810100 0.540611 6.239260 -17.914422 6.782714 -2.496006 36.424190 5.294397 -1.951370 -13.697914 -11.552536 0.140955 0.235124 0.405990
29.502859 84.004970 28.016265 -62.411133 -4.573133 0.011279 3.546533 15.468544 1.959199 1.834203 9.093917 1.244816 2.331494 11.360607 1.607296 1.834185 9.093918 1.244811 -3.901395 9.098882 -2.787740 -6.303686 -18.919720 -3.598456 2.120236 0.746562 -6.866932 -10.517375 -17.576006 79.572590 19.875328 -28.470357 10.818434 6.224168 -8.084636 -0.694699 -12.573427 -0.518428 1.695282 6.582533 -24.911189 -87.829630 -11.497781 -15.432168 -12.542588 -7.502076 -6.571919 3.150373 -6.724464 -7.324864 -19.493579 -2.091254 20.986219 -6.048102 -7.875532 -0.832184 15.919296 -0.093212 -1.649897 0.667581 6.484878 -17.444549 6.884137 -2.600620 35.716799 5.059923 -1.941107 -13.560861 -11.400901 0.121031 0.343633 0.385066
29.437409 84.195569 28.222978 -62.511855 -4.517862 -0.084252 3.533726 15.201503 1.920603 1.823894 8.962873 1.250592 2.318032 11.196820 1.613445 1.823881 8.962874 1.250587 -3.866353 9.224276 -2.733323 -6.259401 -18.685833 -3.512268 1.918047 1.056233 -6.782998 -11.074877 -16.981784 79.967759 19.524574 -28.298041 10.656775 6.284526 -8.100008 -0.747767 -12.399092 -0.516966 1.719310 6.610680 -23.914473 -87.859375 -10.900184 -15.784716 -12.193398 -7.706254 -6.732574 3.319089 -6.451485 -7.058235 -19.208785 -2.303390 20.673860 -6.071243 -8.434679 -0.565546 15.352243 -0.183065 -1.414090 0.881749 6.707323 -17.018384 6.964244 -2.705394 35.008533 4.828284 -1.971649 -13.413496 -11.249673 0.117652 0.442539 0.368007
29.351001 84.389229 28.425691 -62.537686 -4.521308 -0.180255 3.477963 14.988742 1.893120 1.810030 8.832219 1.256993 2.300133 11.033530 1.620303 1.810023 8.832220 1.256988 -3.836740 9.345895 -2.674446 -6.227764 -18.458778 -3.414784 1.709155 1.375193 -6.711943 -11.606708 -16.396379 80.357920 19.183121 -28.137116 10.508689 6.334081 -8.108166 -0.785445 -12.221014 -0.501146 1.751610 6.633306 -22.945517 -87.892017 -10.342068 -16.102277 -11.831931 -7.886706 -6.908354 3.429515 -6.329769 -6.770518 -18.922533 -2.542580 20.464091 -6.067107 -8.860998 -0.484982 14.543015 -0.284427 -1.148678 1.186512 6.870003 -16.544187 7.053601 -2.809157 34.303716 4.603436 -2.013693 -13.207773 -11.094629 0.103230 0.486010 0.343511
29.259873 84.583409 28.617468 -62.534827 -4.488622 -0.273283 3.417063 14.738338 1.871290 1.796570 8.701798 1.263238 2.282739 10.870531 1.626990 1.796569 8.701798 1.263235 -3.815455 9.464010 -2.612337 -6.213787 -18.238046 -3.307113 1.481298 1.706084 -6.655260 -12.109046 -15.821684 80.751158 18.858309 -27.984614 10.368234 6.367427 -8.110547 -0.800344 -12.044347 -0.471103 1.789165 6.635434 -22.011944 -87.907361 -9.826248 -16.362708 -11.466133 -8.023798 -7.059040 3.470033 -6.329908 -6.551857 -18.645694 -2.785367 20.361441 -6.032473 -8.987133 -0.617574 13.512796 -0.342078 -0.899308 1.562967 7.018340 -16.116690 7.135026 -2.903842 33.606565 4.396558 -2.066111 -12.996873 -10.944703 0.090921 0.524303 0.317881
29.150300 84.777995 28.805733 -62.468647 -4.528490 -0.371034 3.315298 14.558006 1.869723 1.785565 8.573563 1.267980 2.268400 10.710263 1.631876 1.785569 8.573563 1.267978 -3.803636 9.577172 -2.548983 -6.218722 -18.026349 -3.192618 1.234867 2.046954 -6.614051 -12.584880 -15.259551 81.151971 18.554630 -27.840069 10.231472 6.373130 -8.106816 -0.791753 -11.879477 -0.434538 1.824794 6.613164 -21.106135 -87.887729 -9.358721 -16.561335 -11.106432 -8.108841 -7.146303 3.443528 -6.484837 -6.302966 -18.381751 -3.007750 20.390622 -5.977921 -8.838421 -0.880935 12.355111 -0.379232 -0.731688 1.937723 7.118851 -15.627250 7.223291 -2.977197 32.914140 4.221374 -2.132226 -12.741169 -10.801892 0.066658 0.521554 0.288301
29.031708 84.970853 28.989754 -62.371129 -4.606229 -0.452990 3.196430 14.410349 1.871555 1.775907 8.451319 1.269575 2.255708 10.557495 1.632896 1.775914 8.451319 1.269574 -3.798862 9.683298 -2.486552 -6.236834 -17.827620 -3.076623 0.982902 2.381814 -6.585207 -13.036013 -14.700634 81.556241 18.272311 -27.709978 10.097366 6.349488 -8.096005 -0.763890 -11.727686 -0.396782 1.846876 6.567470 -20.227483 -87.819117 -8.948622 -16.702165 -10.764912 -8.138519 -7.146150 3.367726 -6.733200 -6.064748 -18.138812 -3.184263 20.572046 -5.913531 -8.495223 -1.239438 11.252256 -0.445265 -0.637437 2.177518 7.212477 -15.106566 7.296886 -3.023318 32.225379 4.081862 -2.236811 -12.464888 -10.679702 0.052708 0.497540 0.268861
28.909122 85.160060 29.164630 -62.271782 -4.698825 -0.530133 3.093108 14.269427 1.891536 1.765361 8.336911 1.266906 2.241847 10.414545 1.628608 1.765370 8.336910 1.266906 -3.796988 9.782748 -2.425686 -6.259758 -17.641249 -2.962315 0.741867 2.687566 -6.560939 -13.462745 -14.120482 81.950548 18.011893 -27.603899 9.968275 6.299678 -8.073579 -0.721459 -11.583775 -0.356014 1.857343 6.506131 -19.378826 -87.712730 -8.611981 -16.773412 -10.447544 -8.114231 -7.065167 3.271971 -7.000198 -5.850105 -17.905935 -3.294317 20.904776 -5.839529 -7.994621 -1.653163 10.368150 -0.488466 -0.634671 2.191966 7.314049 -14.577899 7.371992 -3.041894 31.539790 3.971155 -2.372929 -12.178140 -10.583778 0.050712 0.462757 0.261671
